<svg width="36" height="36" viewBox="0 0 36 36" fill="none" xmlns="http://www.w3.org/2000/svg">
<path fill-rule="evenodd" clip-rule="evenodd" d="M20.4999 15C20.4999 15.663 20.2365 16.2989 19.7677 16.7677C19.2989 17.2366 18.663 17.5 17.9999 17.5C17.3369 17.5 16.701 17.2366 16.2322 16.7677C15.7633 16.2989 15.4999 15.663 15.4999 15C15.4999 14.3369 15.7633 13.7011 16.2322 13.2322C16.701 12.7634 17.3369 12.5 17.9999 12.5C18.663 12.5 19.2989 12.7634 19.7677 13.2322C20.2365 13.7011 20.4999 14.3369 20.4999 15ZM20.5609 18.073C21.1922 17.5466 21.646 16.8386 21.8607 16.0451C22.0753 15.2517 22.0402 14.4114 21.7603 13.6386C21.4804 12.8657 20.9692 12.1979 20.2963 11.7259C19.6234 11.2539 18.8214 11.0007 17.9994 11.0007C17.1775 11.0007 16.3755 11.2539 15.7026 11.7259C15.0296 12.1979 14.5184 12.8657 14.2385 13.6386C13.9586 14.4114 13.9236 15.2517 14.1382 16.0451C14.3528 16.8386 14.8066 17.5466 15.4379 18.073C14.4535 18.5384 13.6142 19.2627 13.0098 20.1685C12.4055 21.0743 12.0588 22.1273 12.0069 23.215C12.0021 23.411 12.0742 23.6011 12.2078 23.7445C12.3414 23.888 12.5259 23.9735 12.7217 23.9826C12.9175 23.9918 13.1092 23.9239 13.2556 23.7935C13.402 23.6631 13.4915 23.4806 13.5049 23.285C13.5595 22.1295 14.0568 21.0394 14.8939 20.241C15.7309 19.4425 16.8432 18.9971 17.9999 18.9971C19.1567 18.9971 20.269 19.4425 21.106 20.241C21.943 21.0394 22.4404 22.1295 22.4949 23.285C22.4974 23.3849 22.5197 23.4832 22.5607 23.5743C22.6017 23.6654 22.6605 23.7474 22.7336 23.8154C22.8067 23.8835 22.8927 23.9363 22.9864 23.9707C23.0802 24.0051 23.1799 24.0204 23.2797 24.0157C23.3795 24.0111 23.4773 23.9865 23.5675 23.9435C23.6576 23.9005 23.7383 23.84 23.8047 23.7654C23.8712 23.6908 23.922 23.6037 23.9543 23.5092C23.9867 23.4147 23.9998 23.3146 23.9929 23.215C23.9409 22.1272 23.5941 21.0741 22.9896 20.1683C22.385 19.2625 21.5455 18.5382 20.5609 18.073Z" fill="#24292E"/>
<circle cx="18" cy="18" r="17.5" stroke="black"/>
</svg>
